<svg width="993" height="159" viewBox="0 0 993 159" fill="none" xmlns="http://www.w3.org/2000/svg">
<path fill-rule="evenodd" clip-rule="evenodd" d="M1 158V159H993V0H992C992 19.8823 975.882 36 956 36H44.3036C28.8396 36 16.3036 48.536 16.3036 64V144C16.3036 151.732 10.0356 158 2.30358 158H1Z" fill="#08101B"/>
<g filter="url(#filter0_f_797_9841)">
<path fill-rule="evenodd" clip-rule="evenodd" d="M1 156.973L1.48489 156.99C8.85966 157.249 14.9708 151.324 14.9406 143.945L14.6148 64.1185C14.5493 48.0562 27.552 35.0002 43.6145 35.0002H956C973.284 35.0002 987.642 22.4713 990.488 6H991.502C988.646 23.0263 973.838 36.0002 956 36.0002H43.6145C28.1059 36.0002 15.5515 48.6059 15.6148 64.1144L15.9406 143.941C15.9731 151.888 9.39188 158.268 1.44983 157.99L1 157.974V156.973Z" fill="url(#paint0_linear_797_9841)" fill-opacity="0.66"/>
</g>
<defs>
<filter id="filter0_f_797_9841" x="0" y="5" width="992.502" height="153.999" filterUnits="userSpaceOnUse" color-interpolation-filters="sRGB">
<feFlood flood-opacity="0" result="BackgroundImageFix"/>
<feBlend mode="normal" in="SourceGraphic" in2="BackgroundImageFix" result="shape"/>
<feGaussianBlur stdDeviation="0" result="effect1_foregroundBlur_797_9841"/>
</filter>
<linearGradient id="paint0_linear_797_9841" x1="-406.969" y1="-158.203" x2="989.503" y2="-158.203" gradientUnits="userSpaceOnUse">
<stop stop-color="#C2C9DD"/>
<stop offset="1" stop-color="#DEE2ED"/>
</linearGradient>
</defs>
</svg>
